<?xml version="1.0" standalone="no"?>
<!DOCTYPE svg PUBLIC "-//W3C//DTD SVG 20010904//EN"
 "http://www.w3.org/TR/2001/REC-SVG-20010904/DTD/svg10.dtd">
<svg version="1.0" xmlns="http://www.w3.org/2000/svg"
 width="260.000000pt" height="260.000000pt" viewBox="0 0 260.000000 260.000000"
 preserveAspectRatio="xMidYMid meet">
<metadata>
Created by potrace 1.14, written by Peter Selinger 2001-2017
</metadata>
<g transform="translate(0.000000,260.000000) scale(0.100000,-0.100000)"
fill="#000000" stroke="none">
<path d="M1201 2538 c1 -35 3 -66 5 -70 9 -14 54 16 55 36 3 80 4 81 28 84 21
3 23 0 19 -22 -7 -33 0 -34 12 -2 7 19 18 26 47 29 21 2 -8 4 -64 5 l-103 2 1
-62z"/>
<path d="M1100 2586 c0 -2 14 -6 30 -8 17 -3 30 -1 30 4 0 4 -13 8 -30 8 -16
0 -30 -2 -30 -4z"/>
<path d="M1433 2579 c23 -13 22 -48 -3 -74 -17 -18 -19 -27 -11 -48 10 -25 8
-27 -14 -27 -19 0 -28 8 -39 33 -14 33 -16 32 -32 -20 -2 -7 -13 -13 -25 -13
-18 0 -20 4 -15 26 l7 27 -31 -27 c-56 -47 -129 -27 -117 32 9 45 0 62 -34 62
-22 0 -29 -5 -29 -20 0 -17 5 -19 25 -14 14 3 25 2 25 -3 0 -16 -24 -33 -47
-33 -14 0 -23 -6 -23 -15 0 -10 11 -15 35 -15 19 0 35 -4 35 -9 0 -14 -10 -18
-62 -26 l-47 -7 -3 38 -4 39 -8 -30 c-10 -40 -26 -61 -54 -69 -17 -6 -22 -3
-22 11 0 10 -16 40 -35 67 -19 27 -32 53 -28 58 3 6 -4 7 -18 3 -37 -11 -209
-93 -209 -100 0 -3 18 4 41 15 39 20 42 20 60 4 20 -18 25 -49 9 -59 -15 -10
-12 -35 5 -35 10 0 15 10 15 29 0 17 5 33 10 36 6 3 10 22 10 40 0 36 28 62
56 51 17 -7 57 -94 48 -107 -3 -5 2 -9 10 -9 9 0 16 -4 16 -9 0 -12 -42 -22
-54 -12 -18 13 -61 -3 -58 -22 2 -11 -10 -23 -32 -34 -33 -15 -37 -15 -54 0
-27 24 -34 21 -27 -12 5 -24 2 -32 -14 -41 -17 -9 -21 -8 -21 5 0 24 -19 17
-26 -10 -15 -61 -109 -99 -132 -52 -19 38 -24 85 -12 107 14 25 95 64 116 56
22 -9 -2 -49 -25 -43 -31 8 -51 -11 -51 -47 0 -46 24 -65 50 -41 11 10 20 24
20 32 0 7 6 13 14 13 30 0 37 26 20 69 -9 22 -13 48 -10 57 6 15 3 15 -21 -1
-271 -173 -465 -422 -557 -714 -46 -145 -59 -249 -53 -408 16 -368 137 -654
382 -898 109 -109 198 -173 333 -240 121 -60 128 -61 136 -30 4 14 11 25 16
25 15 0 12 -48 -2 -53 -18 -5 99 -39 141 -41 44 -1 52 20 11 29 -42 9 -33 29
14 31 34 1 37 -1 32 -22 -14 -56 69 -84 129 -44 32 21 29 22 -40 24 -46 1 -58
25 -29 57 19 21 44 25 61 8 15 -15 44 -4 37 15 -3 8 -14 16 -25 19 -10 3 -19
10 -19 16 0 7 22 8 65 4 85 -8 258 13 364 44 443 127 757 508 803 974 10 100
9 134 -6 240 -24 176 -82 337 -161 453 -14 21 -23 42 -18 46 4 4 28 22 52 39
l44 31 50 -97 c109 -212 150 -377 150 -608 1 -231 -39 -399 -140 -598 -118
-232 -280 -404 -509 -542 -32 -19 -61 -35 -66 -35 -4 0 -8 11 -8 25 0 26 -3
29 -54 40 -29 6 -28 20 2 20 9 0 18 8 20 18 3 12 -3 17 -22 17 -26 0 -66 -34
-66 -56 0 -17 39 -44 63 -44 25 0 16 -25 -9 -26 -40 -1 -77 -34 -38 -34 8 0
13 -4 9 -10 -9 -15 50 8 170 65 659 315 919 1137 563 1783 -121 221 -321 413
-553 531 -128 66 -352 132 -443 131 -23 -1 -25 -2 -9 -11z m132 -21 c14 -6 25
-15 25 -19 0 -14 -33 -19 -47 -8 -30 25 -25 -3 6 -31 l32 -30 -21 -30 c-12
-17 -30 -30 -42 -30 -21 0 -78 30 -78 41 0 14 31 18 50 7 30 -19 36 -1 10 27
-30 32 -34 56 -13 73 21 15 45 15 78 0z m197 -67 c24 -22 13 -58 -24 -77 -16
-8 -33 -12 -38 -9 -5 3 -11 1 -15 -5 -3 -5 6 -12 20 -16 25 -6 32 -18 16 -28
-8 -5 -38 3 -110 29 -11 4 -10 9 5 20 10 8 27 15 37 15 28 0 77 29 77 45 0 9
-10 13 -30 13 -39 -1 -50 10 -26 28 22 16 63 9 88 -15z m153 -67 c36 -21 43
-30 43 -54 -1 -19 -7 -30 -19 -33 -11 -3 -19 -10 -19 -15 0 -15 40 -9 78 12
32 17 35 17 53 0 24 -22 24 -51 -1 -89 -25 -38 -25 -41 1 -48 12 -3 18 -10 15
-15 -3 -5 1 -15 8 -21 19 -16 32 4 17 23 -6 8 -10 28 -9 45 2 28 6 31 34 31
33 0 74 -37 74 -66 0 -21 -28 -17 -40 6 -20 37 -30 20 -13 -21 16 -40 15 -43
-2 -55 -10 -8 -28 -14 -39 -14 -23 0 -66 37 -66 58 0 8 -6 12 -14 9 -8 -3 -22
3 -32 14 -9 10 -14 19 -10 19 3 0 -1 11 -10 25 -14 21 -22 25 -45 20 -15 -3
-30 -2 -33 3 -3 5 -32 22 -63 38 -32 15 -59 29 -61 30 -2 1 7 13 20 27 13 14
30 38 38 54 27 51 35 52 95 17z m-597 -106 c6 -6 31 -14 54 -17 37 -5 43 -9
40 -29 -2 -14 2 -22 12 -22 8 0 22 -10 31 -22 13 -19 18 -21 35 -10 11 6 31
12 44 12 14 0 28 5 31 10 10 16 43 12 53 -7 9 -15 14 -15 60 5 l50 22 110 -39
c98 -35 109 -37 105 -20 -3 10 0 19 6 19 6 0 11 -6 11 -13 0 -8 9 -22 20 -32
23 -21 26 -35 7 -35 -16 0 -25 -17 -88 -175 -47 -117 -50 -154 -8 -101 24 30
45 33 71 9 24 -21 23 -48 -2 -73 -20 -20 -20 -22 -3 -132 10 -69 22 -118 30
-125 10 -7 13 -22 9 -40 -3 -15 2 -66 12 -112 16 -82 18 -85 49 -93 34 -9 52
-40 34 -62 -5 -6 -7 -22 -4 -35 5 -19 2 -22 -13 -19 -11 2 -18 11 -16 21 2 11
-4 17 -16 17 -11 0 -25 7 -32 15 -7 9 -20 14 -29 11 -9 -2 -28 -7 -42 -10 -21
-4 -26 -11 -26 -36 0 -35 4 -36 29 -13 30 27 53 6 50 -44 -3 -29 1 -42 12 -46
23 -9 20 -37 -3 -37 -22 0 -27 -11 -37 -82 -6 -44 -5 -48 15 -48 26 0 38 -25
22 -44 -8 -10 -8 -16 4 -26 36 -30 -3 -83 -44 -60 -29 15 -29 15 -36 -48 -3
-31 -11 -81 -16 -109 -11 -56 -3 -89 13 -59 5 9 18 16 30 16 16 0 19 -5 15
-20 -4 -14 1 -25 14 -33 27 -17 25 -47 -4 -47 -13 0 -28 5 -35 12 -9 9 -15 9
-24 0 -26 -26 -98 -2 -98 33 0 15 -66 33 -148 41 -53 6 -58 4 -67 -17 -12 -29
-44 -37 -60 -16 -7 10 -20 13 -38 10 l-27 -5 25 -26 c21 -20 28 -23 35 -13 10
17 42 7 39 -11 -1 -7 2 -22 7 -33 4 -11 9 -45 9 -75 l0 -55 -50 -28 c-42 -23
-58 -27 -102 -23 -38 3 -53 1 -57 -10 -3 -8 -12 -14 -19 -14 -8 0 -21 -10 -30
-23 -14 -20 -16 -21 -33 -6 -11 9 -33 19 -51 21 -27 4 -33 0 -47 -29 l-16 -33
-89 0 -89 0 -26 52 c-28 57 -32 79 -15 109 8 16 7 23 -6 33 -13 9 -15 19 -9
37 4 13 8 30 8 38 1 24 23 23 30 -1 5 -19 8 -20 16 -8 5 8 10 30 10 48 0 26
-5 35 -20 39 -11 3 -20 9 -20 14 0 4 -15 5 -33 2 -45 -7 -68 18 -42 47 28 31
9 36 -25 6 -17 -14 -38 -26 -45 -26 -20 0 -54 -40 -48 -56 3 -8 -1 -14 -11
-14 -9 0 -16 8 -16 18 -1 24 -19 44 -64 67 -21 11 -49 34 -63 51 -13 18 -35
35 -48 38 -16 4 -25 14 -25 25 0 10 -7 21 -15 25 -8 3 -15 10 -15 16 0 17 31
24 41 9 6 -9 9 1 9 32 0 57 32 184 59 238 26 50 26 58 1 66 -24 8 -28 53 -5
61 13 5 13 8 0 27 -20 28 -19 67 2 96 16 23 15 25 -18 52 -23 18 -41 26 -55
23 -25 -6 -41 13 -26 28 8 8 4 20 -14 41 -60 71 -92 181 -75 256 7 31 6 43 -6
52 -21 18 -13 63 13 67 12 2 46 27 76 56 66 64 150 100 216 93 33 -4 42 -1 42
11 0 26 32 52 64 52 23 0 34 6 41 23 15 33 58 30 65 -5 4 -22 8 -25 20 -18 8
5 25 10 38 10 18 0 22 4 17 19 -3 11 -1 22 5 26 17 11 11 35 -9 35 -29 0 -53
38 -40 63 8 14 18 18 39 13 23 -4 30 -1 35 14 4 11 10 20 14 20 4 0 34 22 68
49 34 27 72 51 85 54 45 8 74 7 86 -5z m262 -42 c0 -17 -27 -29 -35 -16 -4 6
-3 15 0 20 9 15 35 12 35 -4z m-1064 -113 c11 -26 11 -33 -1 -43 -8 -7 -21
-10 -29 -7 -10 4 -18 -4 -26 -26 -9 -28 -72 -107 -85 -107 -3 0 -5 7 -5 16 0
14 -35 72 -51 84 -3 3 -9 14 -13 25 -9 30 73 110 103 100 13 -4 21 -15 21 -28
0 -14 10 -26 25 -34 24 -11 36 -1 15 12 -6 4 -20 24 -31 47 -19 38 -20 41 -3
59 17 19 18 18 42 -23 13 -24 31 -57 38 -75z m1750 -37 c32 -32 45 -66 25 -66
-12 0 -38 25 -44 42 -2 7 -7 11 -10 7 -4 -3 -1 -22 5 -43 11 -34 10 -40 -7
-52 -27 -20 -48 -17 -73 9 -21 23 -46 76 -38 84 10 10 46 -19 46 -37 0 -11 7
-20 15 -20 18 0 19 11 4 43 -8 18 -8 30 0 46 16 30 38 26 77 -13z m-256 -16
c0 -5 -4 -10 -10 -10 -5 0 -10 5 -10 10 0 6 5 10 10 10 6 0 10 -4 10 -10z
m-1175 -60 c0 -8 -10 -16 -22 -18 -22 -3 -32 16 -16 32 12 11 38 2 38 -14z
m-481 -95 l29 -23 -20 -28 c-64 -89 -137 -276 -164 -414 -18 -95 -15 -309 6
-405 47 -221 138 -396 289 -553 125 -130 239 -208 400 -272 87 -35 91 -38 94
-69 2 -24 -3 -39 -17 -52 -12 -11 -21 -26 -21 -34 0 -20 -16 -19 -24 2 -5 11
2 24 20 38 33 26 30 65 -6 81 -56 26 -66 26 -79 -3 -7 -16 -24 -45 -38 -65
l-25 -37 -79 47 c-274 163 -477 415 -578 717 -45 134 -64 259 -64 415 0 224
38 384 141 592 l57 116 25 -15 c14 -8 38 -25 54 -38z m1586 -15 c0 -5 -5 -10
-11 -10 -5 0 -7 5 -4 10 3 6 8 10 11 10 2 0 4 -4 4 -10z m67 -166 c9 -23 -13
-40 -32 -24 -12 10 -13 16 -4 26 15 18 28 18 36 -2z m11 -87 c4 -21 -25 -34
-40 -19 -8 8 -8 16 2 27 16 19 34 15 38 -8z m-1438 -367 c0 -5 -2 -10 -4 -10
-3 0 -8 5 -11 10 -3 6 -1 10 4 10 6 0 11 -4 11 -10z m60 -240 c0 -5 -4 -10
-10 -10 -5 0 -10 5 -10 10 0 6 5 10 10 10 6 0 10 -4 10 -10z m1402 -195 c0 -5
-5 -11 -11 -13 -6 -2 -11 4 -11 13 0 9 5 15 11 13 6 -2 11 -8 11 -13z m-62
-125 c0 -5 -4 -10 -10 -10 -5 0 -10 5 -10 10 0 6 5 10 10 10 6 0 10 -4 10 -10z
m-284 -201 c7 -12 -15 -31 -28 -23 -4 3 -8 12 -8 20 0 17 26 19 36 3z m-725
-32 c-13 -13 -26 -3 -16 12 3 6 11 8 17 5 6 -4 6 -10 -1 -17z m665 -18 c7 -12
-15 -31 -31 -26 -5 2 -11 11 -13 20 -4 19 32 24 44 6z m-706 -325 c0 -8 -9
-14 -20 -14 -19 0 -27 19 -14 33 10 9 34 -4 34 -19z m185 -12 c-12 -9 -24 -24
-27 -33 -9 -23 -58 -13 -58 12 0 15 5 17 30 13 23 -5 30 -3 30 10 0 10 8 16
23 16 l22 -1 -20 -17z"/>
<path d="M1867 2396 c-7 -18 1 -26 25 -26 21 0 23 11 6 28 -16 16 -25 15 -31
-2z"/>
<path d="M1830 2336 c0 -16 27 -29 41 -20 13 8 -9 34 -27 34 -8 0 -14 -6 -14
-14z"/>
<path d="M1975 2281 c-10 -18 17 -23 33 -7 15 15 15 16 -5 16 -12 0 -24 -4
-28 -9z"/>
<path d="M1214 2286 c-3 -9 -10 -16 -15 -16 -20 0 -111 -75 -120 -98 -12 -30
5 -98 27 -106 8 -3 23 -2 32 3 9 4 65 7 124 7 l107 -2 -3 36 c-3 31 -7 36 -37
41 -23 4 -6 7 48 8 45 0 90 4 100 7 13 5 15 4 8 -4 -5 -6 -30 -12 -55 -14 -42
-3 -45 -5 -48 -33 l-3 -30 63 2 c35 1 66 2 71 2 4 1 12 12 17 26 5 14 14 25
19 25 5 0 13 9 16 20 7 24 -10 50 -32 50 -11 0 -9 -5 6 -17 16 -14 18 -22 11
-33 -9 -13 -13 -12 -30 9 -19 22 -24 23 -91 16 -68 -7 -72 -6 -64 11 4 11 10
33 12 50 5 30 3 32 -34 38 -102 18 -123 18 -129 2z m14 -123 c-7 -9 -8 -14 -2
-10 6 3 24 2 40 -3 l29 -8 -27 -1 c-14 -1 -33 -4 -41 -7 -18 -7 -29 20 -21 51
5 22 8 23 21 9 13 -12 13 -17 1 -31z m289 -18 c0 -8 -4 -15 -9 -15 -4 0 -8 7
-8 15 0 8 4 15 8 15 5 0 9 -7 9 -15z m-377 -40 c-33 -19 -50 -18 -26 0 11 8
27 15 35 15 10 -1 7 -6 -9 -15z m110 6 c0 -5 -12 -11 -27 -13 -16 -3 -37 -9
-48 -13 -18 -8 -18 -7 -7 8 17 21 82 35 82 18z m105 -12 c11 -17 -1 -21 -15
-4 -8 9 -8 15 -2 15 6 0 14 -5 17 -11z"/>
<path d="M1693 2147 c-18 -45 -48 -125 -69 -177 -20 -52 -41 -99 -46 -105 -5
-5 -4 4 3 20 6 17 35 91 64 165 29 74 56 143 60 153 6 15 -6 12 -63 -17 -79
-40 -88 -50 -127 -152 -25 -65 -29 -70 -53 -66 -36 5 -77 -28 -92 -73 -9 -28
-8 -41 5 -69 9 -19 27 -42 41 -51 13 -8 31 -29 39 -45 9 -17 20 -28 25 -25 18
11 10 25 -41 75 -49 48 -51 52 -46 91 3 22 13 49 23 60 21 23 69 27 60 4 -3
-8 -8 -21 -12 -29 -11 -28 210 -99 295 -94 l53 3 65 160 c35 88 66 165 69 171
4 10 -92 50 -166 69 -14 4 -32 8 -40 10 -11 3 -24 -19 -47 -78z m133 23 c32
-11 65 -22 72 -25 7 -3 10 -10 7 -15 -5 -8 -11 -8 -19 0 -21 17 -129 51 -137
43 -10 -10 -59 -139 -59 -154 0 -8 5 -7 15 1 12 10 15 10 15 -2 0 -22 107 -40
126 -21 8 8 14 19 14 24 0 11 2 11 -35 0 -17 -4 -40 -4 -53 0 -29 11 -30 57
-2 87 22 23 47 19 95 -15 30 -22 30 -28 3 -81 -25 -48 -17 -46 -140 -20 -57
11 -57 15 -23 111 37 102 29 98 121 67z m-62 -16 c3 -8 2 -12 -4 -9 -6 3 -10
10 -10 16 0 14 7 11 14 -7z m-10 -199 c81 -28 81 -28 67 -52 -11 -17 -11 -17
-9 1 2 15 -7 23 -40 32 -41 13 -43 12 -52 -11 -9 -24 -10 -24 -45 -10 -19 9
-35 12 -35 7 0 -4 -7 -17 -15 -28 -9 -12 -7 1 6 34 14 33 28 52 38 52 9 0 47
-11 85 -25z m-257 -35 c-1 -22 -17 -28 -17 -7 0 12 9 27 16 27 2 0 2 -9 1 -20z
m63 -10 c0 -5 -7 -7 -15 -4 -8 4 -15 8 -15 10 0 2 7 4 15 4 8 0 15 -4 15 -10z
m207 -30 c3 0 -1 7 -8 17 -13 15 -11 15 19 -1 17 -9 32 -24 32 -33 0 -15 -2
-14 -16 3 -8 10 -12 13 -9 6 6 -11 3 -12 -12 -4 -12 7 -25 7 -36 1 -11 -7 -17
-6 -17 1 0 5 4 10 10 10 5 0 6 8 3 18 -7 16 -6 16 11 0 9 -10 20 -18 23 -18z
m-66 -9 c-9 -16 -5 -20 34 -31 24 -7 48 -9 54 -5 6 3 11 1 11 -4 0 -26 -116 3
-132 33 -10 19 -10 20 5 7 15 -12 17 -11 17 3 0 9 5 16 10 16 7 0 7 -6 1 -19z"/>
<path d="M1768 2086 c-15 -35 -4 -56 31 -56 37 0 81 16 81 30 0 14 -60 50 -83
50 -9 0 -22 -11 -29 -24z"/>
<path d="M1657 1963 c-15 -14 -6 -31 20 -36 34 -6 49 13 26 31 -19 13 -36 16
-46 5z"/>
<path d="M1065 2060 c-3 -5 -3 -15 0 -20 11 -18 -16 -40 -50 -40 -30 0 -76
-33 -63 -45 3 -3 11 1 18 10 7 8 18 15 26 15 11 0 11 -6 0 -32 -10 -23 -25
-37 -47 -45 -48 -16 -16 -27 42 -14 27 6 48 6 53 1 6 -6 3 -11 -7 -15 -49 -15
-53 -18 -30 -22 23 -4 103 42 110 63 2 6 -8 16 -22 22 -15 7 -24 8 -20 2 3 -6
-1 -7 -10 -4 -14 6 -14 9 2 27 17 19 17 20 1 14 -15 -5 -16 -4 -5 13 11 18 12
19 18 2 3 -9 4 -24 2 -32 -3 -10 1 -8 11 4 17 21 17 21 31 -30 5 -17 112 -74
139 -74 30 0 63 40 72 86 3 19 10 37 15 40 13 8 11 24 -3 24 -6 0 -22 10 -35
22 l-23 22 -28 -27 c-36 -34 -74 -35 -100 -2 -11 14 -29 25 -40 25 -12 0 -24
5 -27 10 -3 6 -10 10 -15 10 -5 0 -12 -4 -15 -10z m55 -64 c0 -12 -5 -7 -19
24 -11 24 -11 24 3 6 9 -11 16 -24 16 -30z m203 -27 c-5 -5 -9 -1 -9 9 -1 9
-4 26 -8 37 -4 11 0 7 9 -9 10 -16 13 -32 8 -37z m-29 0 c-7 -11 -34 -12 -34
-1 0 14 11 21 26 15 8 -3 11 -9 8 -14z m13 -45 c2 -5 -16 -9 -40 -8 -59 1 -68
5 -27 13 43 9 63 7 67 -5z m-207 -6 c0 -5 -9 -8 -19 -8 -11 0 -22 3 -24 8 -3
4 6 7 19 7 13 0 24 -3 24 -7z m188 -25 c-10 -2 -26 -2 -35 0 -10 3 -2 5 17 5
19 0 27 -2 18 -5z"/>
<path d="M1389 2023 c-33 -71 -58 -145 -58 -168 0 -11 9 4 19 34 22 67 56 102
98 103 31 1 31 2 12 15 -15 10 -18 21 -14 39 5 20 2 24 -14 24 -15 0 -27 -13
-43 -47z"/>
<path d="M646 1915 c-121 -49 -182 -148 -173 -280 6 -102 34 -154 121 -223 39
-31 90 -76 113 -100 l42 -43 -14 -52 c-8 -29 -29 -89 -48 -133 -74 -169 -87
-234 -59 -297 15 -34 28 -48 55 -58 25 -9 37 -20 40 -38 9 -44 45 -81 79 -81
33 0 72 35 121 110 18 26 43 48 68 59 21 9 39 22 39 29 0 13 -54 -5 -97 -34
-28 -18 -34 -18 -27 1 4 8 12 15 20 15 8 0 14 4 14 9 0 5 3 17 7 26 5 14 2 16
-18 10 -20 -5 -19 -3 7 13 93 59 110 162 39 237 -30 32 -65 49 -49 24 3 -6 -2
-29 -12 -51 -18 -39 -18 -41 1 -54 18 -13 18 -14 -3 -36 -11 -13 -21 -26 -21
-30 -1 -5 -1 -9 -2 -10 -6 -18 -3 -48 4 -48 5 0 4 -7 -3 -15 -17 -20 -24 -12
-27 32 -1 19 -10 45 -20 56 -15 18 -15 20 -1 9 20 -16 54 -8 62 14 3 8 -3 23
-14 34 -22 22 -26 40 -10 40 6 0 15 10 19 23 7 16 5 25 -7 35 -14 11 -13 12 7
12 13 0 20 4 15 11 -10 17 36 -10 75 -44 l34 -29 12 23 c10 20 27 109 21 109
0 0 -17 -4 -36 -10 l-35 -10 33 26 c17 14 37 34 42 44 13 24 -4 70 -25 70 -23
0 -35 41 -19 65 8 11 14 23 14 27 0 11 -56 38 -82 39 -19 1 -19 2 -4 6 19 5
106 -24 106 -35 0 -4 -7 -16 -15 -26 -8 -11 -15 -28 -15 -38 0 -16 31 -41 55
-43 6 -1 23 -6 38 -13 39 -16 40 -16 21 13 -9 14 -12 25 -8 25 5 0 15 -9 22
-20 7 -11 20 -20 30 -21 11 0 8 -4 -10 -10 -19 -7 -36 -6 -62 5 -29 12 -36 12
-36 2 0 -21 25 -37 46 -30 18 5 18 5 1 -6 -9 -6 -21 -9 -26 -6 -15 9 -23 -24
-26 -106 -3 -89 3 -103 40 -96 14 3 23 2 18 -2 -4 -5 -19 -10 -32 -12 -29 -4
-53 -38 -33 -45 10 -4 10 -8 1 -19 -9 -11 -9 -20 1 -39 10 -19 17 -22 31 -14
22 11 23 6 8 -22 -10 -20 -11 -20 -24 -2 -15 20 -29 12 -40 -24 -5 -19 -3 -23
17 -23 13 0 18 -4 12 -8 -16 -11 -34 -71 -23 -77 5 -4 5 -14 -2 -26 -5 -11 -8
-25 -6 -32 3 -7 8 -1 11 13 4 14 21 33 38 43 27 16 30 16 24 1 -5 -12 2 -10
26 8 51 38 67 43 28 9 -36 -32 -35 -39 3 -20 22 11 22 11 2 -7 -11 -11 -48
-31 -82 -44 -35 -14 -63 -28 -63 -32 0 -17 22 -17 47 1 16 10 41 22 56 25 28
7 28 7 11 -19 -16 -24 -17 -24 -30 -8 -13 16 -14 14 -8 -19 8 -48 -3 -99 -17
-77 -14 22 -29 -7 -27 -53 1 -29 4 -35 14 -28 6 6 10 19 7 30 -5 19 17 36 59
44 34 7 35 7 13 16 -17 7 -17 9 -2 9 16 1 21 20 20 85 0 16 6 17 40 13 l39 -5
-6 31 c-8 36 -8 38 -2 125 4 62 0 72 -22 50 -7 -7 -12 -8 -12 -2 0 5 8 14 18
21 15 9 20 29 25 86 4 41 10 82 13 92 5 13 4 16 -4 11 -7 -4 -12 -17 -12 -29
0 -12 -5 -29 -11 -37 -8 -12 -10 -10 -8 10 3 52 0 57 -28 54 -16 -2 -20 -1
-10 2 22 7 22 20 0 33 -10 5 -15 13 -10 17 4 4 15 0 25 -9 10 -10 22 -14 25
-11 4 4 14 1 22 -6 14 -11 19 -10 38 10 l22 24 -22 -18 c-13 -11 -23 -14 -23
-9 0 16 25 34 57 39 23 3 25 2 11 -6 -10 -6 -18 -16 -18 -21 0 -6 -7 -17 -15
-25 -22 -22 -34 -81 -30 -148 3 -42 -1 -65 -13 -85 -16 -25 -16 -25 1 -12 12
9 17 10 17 2 0 -7 5 -9 11 -5 7 4 10 1 7 -7 -3 -8 -14 -12 -24 -10 -18 3 -18
2 1 -19 16 -17 17 -24 7 -40 -7 -11 -12 -27 -12 -37 0 -13 6 -11 28 10 37 35
53 35 21 0 l-24 -27 30 19 c25 15 28 16 16 2 -7 -9 -28 -26 -47 -38 -30 -18
-32 -22 -19 -35 13 -13 21 -62 16 -101 -1 -7 7 -16 16 -22 14 -7 24 -4 42 15
26 27 20 53 -7 32 -14 -11 -14 -9 1 8 9 11 17 37 17 57 0 20 3 37 6 37 4 0 39
-15 78 -34 57 -27 104 -39 241 -61 93 -15 174 -29 181 -32 8 -3 14 16 18 54 8
65 36 224 67 382 11 56 19 104 17 106 -2 2 -75 17 -163 34 -88 18 -170 36
-182 41 -17 7 -23 5 -27 -8 -12 -38 -57 -326 -66 -422 -10 -100 -20 -144 -20
-83 0 25 -9 36 -50 64 -47 32 -101 107 -100 140 1 8 12 -9 25 -37 31 -63 62
-95 75 -75 5 10 -1 22 -21 39 -17 13 -39 42 -50 64 -11 21 -23 36 -28 34 -4
-3 -8 20 -9 52 l0 57 8 -43 c12 -58 58 -139 92 -164 19 -13 28 -27 26 -40 -2
-12 6 -26 20 -35 20 -14 22 -14 22 0 0 24 -41 128 -67 170 -34 55 -43 118 -31
215 6 57 6 92 -1 110 -18 49 -23 92 -16 158 8 72 25 70 25 -3 0 -44 14 -55 38
-31 6 6 14 9 17 6 3 -3 -13 -18 -35 -33 -22 -15 -38 -30 -36 -33 8 -7 79 38
94 59 12 17 62 49 77 49 3 0 5 -7 5 -15 0 -8 -6 -12 -14 -9 -9 3 -35 -13 -63
-37 -26 -24 -50 -45 -52 -46 -2 -1 2 -10 10 -19 8 -10 13 -25 11 -36 -4 -21 8
-23 27 -5 11 10 11 8 2 -10 -16 -31 -14 -33 18 -33 48 0 84 18 77 37 -4 9 -9
44 -11 77 -5 59 -4 59 9 -17 8 -43 17 -81 19 -84 6 -6 282 41 340 57 40 12 43
21 27 80 -9 33 -51 302 -65 418 -4 28 -11 52 -16 52 -9 0 -164 -37 -297 -72
-52 -13 -99 -33 -125 -52 -57 -42 -63 -41 -59 8 3 35 0 45 -15 50 -31 12 -83
50 -83 62 0 5 -6 19 -14 29 -13 18 -14 18 -24 -2 -14 -25 -4 -67 12 -54 8 6
11 -6 13 -45 0 -29 8 -82 17 -117 9 -36 14 -71 10 -80 -3 -8 0 -35 7 -58 6
-24 13 -81 15 -127 2 -54 9 -92 20 -111 16 -27 16 -34 -1 -117 -11 -48 -21
-82 -23 -76 -2 7 2 36 8 64 6 29 14 63 16 76 2 12 -2 35 -11 52 -8 16 -15 41
-15 55 0 22 -2 24 -19 14 -11 -7 -26 -9 -37 -4 -17 7 -15 9 9 14 26 5 29 11
33 53 2 26 -1 50 -6 53 -6 3 -10 0 -10 -8 0 -8 -8 -21 -17 -28 -16 -13 -17
-12 -4 4 7 9 15 40 16 68 1 28 0 47 -4 42 -3 -4 -19 -14 -35 -21 -23 -10 -26
-15 -16 -27 6 -7 19 -11 28 -8 14 4 15 3 2 -6 -11 -7 -19 -6 -32 6 -17 15 -18
14 -18 -25 0 -30 4 -42 18 -45 13 -4 11 -5 -5 -6 -20 -1 -23 4 -23 42 0 23 -4
37 -8 31 -4 -6 -16 -14 -27 -18 -20 -7 -20 -8 -1 -22 11 -8 15 -14 9 -14 -7 0
-15 5 -18 10 -4 6 -11 8 -16 5 -5 -4 -9 -3 -9 2 0 4 20 21 45 36 46 30 58 44
28 33 -10 -3 -1 8 20 25 20 17 37 37 37 45 0 8 4 14 9 14 16 0 20 29 10 60 -6
17 -18 30 -27 30 -14 0 -14 2 -3 9 17 11 9 90 -10 101 -8 5 -10 21 -6 44 4 28
2 36 -9 36 -8 0 -33 9 -55 21 -23 11 -42 19 -44 17 -6 -6 -38 -83 -41 -98 -4
-21 66 -90 92 -90 15 0 26 10 34 30 7 17 15 29 17 26 2 -2 -3 -18 -12 -35 -23
-45 -57 -42 -105 10 l-38 42 -27 -29 c-24 -25 -27 -26 -21 -7 4 14 2 23 -6 26
-7 2 -5 3 5 1 28 -4 47 6 47 25 0 9 7 27 16 39 8 12 14 37 12 55 l-3 32 -29
-42 c-16 -24 -33 -40 -38 -37 -5 3 -15 1 -22 -6 -8 -6 -27 -15 -44 -19 -24 -7
-34 -5 -53 13 -43 38 -129 96 -144 96 -8 0 -22 -12 -32 -26 l-17 -26 62 -60
c34 -33 62 -61 62 -63 0 -9 -49 -53 -54 -48 -3 4 -14 -1 -24 -10 -10 -10 -21
-14 -25 -11 -10 11 -88 -119 -81 -136 3 -8 9 -23 11 -32 3 -10 12 -18 19 -18
8 0 14 -4 14 -9 0 -8 79 -40 105 -42 26 -2 11 18 -22 30 -66 23 -85 39 -73 61
6 11 16 20 22 20 6 0 3 -9 -7 -20 -17 -19 -17 -20 17 -34 19 -8 46 -18 61 -21
36 -9 34 -27 -7 -68 l-34 -34 15 -67 c11 -49 24 -75 47 -99 25 -26 26 -29 6
-16 -13 9 -34 35 -46 57 -12 23 -25 38 -29 34 -4 -4 -6 9 -5 28 4 57 1 90 -10
90 -5 0 -10 -20 -10 -45 0 -25 -3 -45 -6 -45 -3 0 -17 13 -30 30 -14 16 -56
53 -94 80 -56 42 -72 62 -94 109 -63 142 -10 295 116 337 27 9 58 14 68 11 26
-7 59 41 39 54 -22 14 -50 10 -113 -16z m243 -108 c-13 -13 -26 -22 -28 -20
-7 5 31 43 42 43 6 0 -1 -10 -14 -23z m149 -16 c-13 -15 -26 -26 -30 -24 -5 2
4 15 20 28 36 32 38 31 10 -4z m-10 -65 c34 -36 62 -72 61 -79 0 -6 -5 -2 -11
11 -13 25 -30 28 -47 8 -17 -20 -43 -10 -86 34 -23 24 -44 36 -54 33 -12 -4
-13 -2 -3 4 7 5 10 17 7 25 -8 21 32 50 54 38 9 -4 44 -38 79 -74z m195 42 c6
-4 8 -10 4 -15 -11 -10 -27 17 -26 42 l1 20 5 -20 c3 -11 10 -23 16 -27z m112
12 c3 -5 1 -10 -4 -10 -6 0 -11 5 -11 10 0 6 2 10 4 10 3 0 8 -4 11 -10z m535
5 c0 -11 -53 -85 -58 -81 -2 3 5 18 17 34 12 17 21 35 21 41 0 6 5 11 10 11 6
0 10 -2 10 -5z m-33 -11 c-3 -3 -12 -4 -19 -1 -8 3 -5 6 6 6 11 1 17 -2 13 -5z
m-52 -14 c-11 -5 -27 -9 -35 -9 -9 0 -8 4 5 9 11 5 27 9 35 9 9 0 8 -4 -5 -9z
m-95 -26 c-25 -7 -49 -13 -55 -13 -18 1 59 27 80 28 11 0 0 -7 -25 -15z m-90
-32 l-23 -18 42 -22 c23 -12 49 -22 59 -23 14 0 14 -2 -3 -9 -18 -8 -18 -9 5
-9 21 -1 26 -6 25 -26 0 -13 -6 -30 -12 -37 -18 -17 -16 -28 5 -28 14 0 12 -4
-9 -23 -14 -12 -24 -27 -22 -33 2 -7 -10 -17 -27 -23 -32 -11 -33 -31 -1 -31
10 0 18 -6 18 -12 0 -7 4 -20 8 -30 4 -11 0 -18 -14 -23 -12 -3 -21 -10 -21
-15 0 -4 27 0 60 10 33 10 79 21 101 25 34 6 45 15 74 58 19 28 33 52 31 54
-2 2 -51 -8 -111 -22 -59 -14 -110 -24 -112 -21 -2 2 48 16 111 31 111 25 116
28 116 52 0 42 7 22 13 -37 3 -30 2 -46 -2 -36 -6 17 -11 14 -37 -24 -34 -50
-40 -54 -115 -75 -31 -8 -67 -24 -80 -36 -13 -11 -17 -17 -9 -13 12 6 13 4 3
-7 -26 -27 -13 -32 65 -26 42 4 91 10 107 13 17 4 28 4 25 1 -10 -11 -225 -46
-232 -38 -5 4 -13 44 -20 89 -8 60 -15 82 -24 78 -16 -6 -60 28 -75 57 -9 18
-9 20 1 10 9 -9 19 -9 32 -2 19 10 19 12 3 30 -17 18 -19 17 -63 -21 -25 -22
-51 -40 -58 -40 -27 0 -20 26 15 57 20 18 31 32 24 33 -6 0 -28 -15 -47 -34
-20 -18 -36 -33 -37 -32 0 0 -2 33 -4 71 -1 39 -8 83 -14 98 -14 35 -14 47 -1
27 8 -13 10 -12 10 4 0 11 3 16 7 13 3 -4 8 -40 10 -80 5 -86 9 -105 24 -90 8
8 8 17 0 31 -6 11 -11 24 -11 29 1 4 8 -4 16 -20 l15 -27 35 26 35 27 -23 26
c-22 25 -22 25 -1 7 12 -10 29 -16 38 -12 27 10 -8 -45 -59 -92 -59 -54 -40
-66 23 -13 45 38 49 39 65 23 16 -16 18 -16 31 1 9 13 14 15 17 5 3 -8 11 -1
21 17 9 17 16 26 16 20 0 -5 -6 -21 -14 -35 -18 -31 -18 -40 -2 -40 12 0 57
62 57 80 0 5 -4 10 -10 10 -5 0 -10 7 -10 15 0 9 -8 18 -17 22 -10 3 -26 13
-35 21 -10 8 -18 12 -18 7 0 -4 -6 -2 -14 4 -11 10 -16 8 -21 -8 -8 -26 -20
-26 -44 -2 -11 11 -22 17 -25 14 -3 -4 -6 -1 -6 5 0 15 17 15 26 0 5 -8 10 -6
16 8 7 17 8 16 4 -3 -3 -14 1 -23 9 -23 14 0 25 22 25 50 0 17 15 26 49 29 7
0 3 -7 -9 -17z m-680 -36 c0 -13 -7 -30 -17 -37 -15 -13 -15 -12 -4 10 7 12
11 32 8 42 -3 10 -1 17 4 13 5 -3 9 -16 9 -28z m286 -1 c18 -14 17 -15 -8 -4
-36 16 -78 -10 -78 -46 0 -30 15 -33 30 -5 12 22 35 26 45 10 10 -17 -18 -52
-64 -80 -22 -14 -41 -32 -41 -39 0 -12 -3 -12 -12 -3 -6 6 -10 13 -7 15 2 1
28 18 56 37 54 36 69 55 53 65 -5 3 -14 -4 -20 -15 -15 -28 -39 -25 -50 6 -13
33 -15 29 23 53 39 25 47 26 73 6z m681 -27 c-3 -7 -5 -2 -5 12 0 14 2 19 5
13 2 -7 2 -19 0 -25z m-1011 -10 c-9 -12 -16 -18 -16 -13 0 6 -5 3 -10 -5 -5
-8 -10 -10 -11 -5 0 6 -2 18 -4 27 -3 15 0 16 16 7 15 -8 21 -6 25 6 4 9 9 14
11 11 3 -3 -2 -15 -11 -28z m374 17 c-7 -9 -15 -13 -17 -11 -7 7 7 26 19 26 6
0 6 -6 -2 -15z m515 5 c-11 -5 -27 -9 -35 -9 -9 0 -8 4 5 9 11 5 27 9 35 9 9
0 8 -4 -5 -9z m76 -20 c23 -16 45 -27 50 -24 5 3 9 0 9 -5 0 -6 -5 -11 -11
-11 -10 0 -99 60 -99 67 0 8 13 1 51 -27z m-882 1 c-13 -10 -34 -23 -46 -30
-13 -6 -23 -19 -23 -27 0 -11 6 -14 23 -8 22 6 22 6 2 -13 -19 -19 -20 -19
-27 -2 -5 14 -18 17 -66 16 -33 -1 -58 1 -56 5 8 12 63 19 80 10 13 -7 29 0
68 29 28 22 55 39 60 39 5 0 -2 -8 -15 -19z m-151 2 c-10 -2 -18 -8 -18 -13 0
-5 8 -11 18 -13 13 -4 11 -5 -5 -6 -13 0 -23 5 -23 12 0 18 10 27 29 26 13 -1
13 -2 -1 -6z m257 -11 c13 3 22 1 19 -3 -11 -18 -74 -6 -74 13 0 6 6 5 15 -2
8 -7 26 -10 40 -8z m362 -24 c-3 -7 -5 -2 -5 12 0 14 2 19 5 13 2 -7 2 -19 0
-25z m-133 -9 c-9 -10 -23 -19 -30 -19 -20 0 -28 -21 -13 -31 11 -7 10 -9 -3
-9 -32 0 -20 35 18 53 21 11 32 22 28 29 -5 7 -3 8 5 4 9 -6 8 -13 -5 -27z
m272 -26 c1 -21 -1 -30 -3 -20 -3 9 -9 15 -14 11 -5 -3 -4 6 3 20 6 14 12 26
13 26 0 0 1 -17 1 -37z m-530 15 c4 -7 3 -8 -5 -4 -6 4 -18 3 -24 -3 -15 -12
-60 -3 -51 10 8 13 72 11 80 -3z m154 -30 l-35 -29 28 -23 28 -23 -23 -15
c-34 -22 -68 -39 -68 -34 0 2 16 14 36 25 l37 22 -24 25 -23 25 34 33 c19 17
37 30 40 28 3 -2 -11 -17 -30 -34z m635 28 c-51 -16 -110 -28 -103 -21 8 8 99
32 123 33 11 0 2 -6 -20 -12z m-795 -52 c0 -20 5 -45 12 -57 10 -19 9 -20 -4
-10 -8 7 -18 10 -22 6 -4 -4 -4 1 0 11 6 15 4 17 -6 11 -10 -6 -11 -4 -5 11 5
10 8 31 8 46 0 15 4 25 8 22 5 -3 9 -21 9 -40z m-217 9 c-7 -2 -19 -2 -25 0
-7 3 -2 5 12 5 14 0 19 -2 13 -5z m34 -35 c-3 -7 -5 -2 -5 12 0 14 2 19 5 13
2 -7 2 -19 0 -25z m33 22 c0 -5 -2 -10 -4 -10 -3 0 -8 5 -11 10 -3 6 -1 10 4
10 6 0 11 -4 11 -10z m477 -22 c-3 -7 -5 -2 -5 12 0 14 2 19 5 13 2 -7 2 -19
0 -25z m-448 -24 c-9 -9 -19 -10 -29 -4 -8 5 -11 12 -7 17 5 4 12 1 17 -7 10
-16 13 -8 11 25 -1 19 -1 19 10 1 9 -14 8 -21 -2 -32z m196 -14 c-3 -5 -12
-10 -18 -10 -7 0 -6 4 3 10 19 12 23 12 15 0z m-235 -43 c0 -2 -10 -12 -22
-23 l-23 -19 19 23 c18 21 26 27 26 19z m1066 -114 c-3 -7 -18 -13 -33 -13
-22 0 -25 2 -13 10 12 8 10 10 -10 10 -14 0 -32 5 -40 11 -12 8 -11 9 5 5 11
-2 35 -7 53 -11 l33 -7 -5 54 -5 53 10 -49 c5 -27 8 -55 5 -63z m-866 23 c0
-5 -9 -1 -20 9 -11 10 -17 22 -14 27 6 9 33 -20 34 -36z m-83 2 c29 -27 30
-58 3 -58 -23 0 -24 -8 -10 -44 13 -35 4 -33 -15 4 -9 17 -24 30 -34 30 -9 0
-24 11 -31 25 -7 13 -18 22 -24 19 -6 -4 3 5 19 20 37 31 62 33 92 4z m108 2
c3 -5 1 -10 -4 -10 -6 0 -11 5 -11 10 0 6 2 10 4 10 3 0 8 -4 11 -10z m115
-27 c0 -8 -8 -6 -25 9 -14 12 -25 23 -25 25 0 1 11 -3 25 -9 14 -6 25 -17 25
-25z m88 -21 c9 -14 10 -22 3 -22 -6 0 -11 7 -11 15 0 7 -8 19 -17 25 -10 6
-12 10 -4 8 8 -2 21 -14 29 -26z m-35 -33 c-25 -9 -39 7 -23 26 13 16 15 15
27 -1 12 -16 11 -19 -4 -25z m0 -15 c23 4 28 3 17 -4 -33 -22 -82 -1 -72 30 4
10 8 7 14 -9 7 -20 13 -23 41 -17z m-121 -14 c22 11 22 10 4 -4 -25 -20 -30
-20 -47 2 -13 15 -12 16 3 4 13 -10 22 -11 40 -2z m212 -6 c5 -14 4 -15 -9 -4
-17 14 -19 20 -6 20 5 0 12 -7 15 -16z m-154 2 c0 -3 -4 -8 -10 -11 -5 -3 -10
-1 -10 4 0 6 5 11 10 11 6 0 10 -2 10 -4z m-40 -56 c-12 -16 -26 -30 -32 -30
-5 0 3 14 19 30 15 17 29 30 31 30 2 0 -6 -13 -18 -30z m-193 4 c-3 -3 -12 -4
-19 -1 -8 3 -5 6 6 6 11 1 17 -2 13 -5z m-87 -24 c12 -7 10 -9 -8 -7 -12 0
-22 5 -22 9 0 11 12 10 30 -2z m939 -26 c51 -12 96 -25 98 -28 3 -3 -4 -52
-15 -108 -12 -57 -29 -155 -37 -218 -9 -63 -20 -118 -24 -123 -4 -4 -60 2
-125 13 -65 11 -129 20 -142 20 -14 0 -27 6 -30 14 -5 13 51 423 61 454 6 17
83 8 214 -24z m-1004 14 c-11 -6 -30 -20 -42 -30 -21 -20 -21 -20 -2 -41 10
-11 19 -28 19 -36 0 -14 1 -14 10 -1 8 12 11 13 19 1 6 -9 11 -10 15 -2 4 6
12 11 19 11 6 0 2 -10 -10 -21 -15 -15 -34 -21 -67 -22 -25 0 -49 2 -52 5 -3
4 2 20 10 37 20 38 20 52 1 27 -21 -27 -19 -11 2 21 17 26 69 63 88 63 6 0 1
-6 -10 -12z m172 -114 c-3 -3 -12 -4 -19 -1 -8 3 -5 6 6 6 11 1 17 -2 13 -5z
m-250 -102 c9 -18 34 -43 57 -57 22 -14 35 -25 27 -25 -39 0 -112 84 -110 127
0 14 2 15 6 3 3 -8 12 -30 20 -48z m400 1 c-8 -16 -17 -35 -21 -43 -3 -8 -3
-4 0 10 3 14 6 33 7 43 1 9 7 17 14 17 11 0 11 -5 0 -27z m158 -23 c-3 -5 -11
-10 -16 -10 -6 0 -7 5 -4 10 3 6 11 10 16 10 6 0 7 -4 4 -10z m-178 -102 c-3
-8 -6 -5 -6 6 -1 11 2 17 5 13 3 -3 4 -12 1 -19z m290 -65 c-3 -10 -5 -2 -5
17 0 19 2 27 5 18 2 -10 2 -26 0 -35z m-75 -11 c-6 -5 -18 -16 -25 -24 -10
-15 -14 -15 -25 -2 -11 12 -9 16 10 23 30 12 58 14 40 3z"/>
<path d="M904 1779 c-7 -13 56 -89 87 -105 23 -12 29 -11 39 2 18 21 3 31 -23
16 l-22 -13 22 19 22 19 -42 34 c-42 34 -73 44 -83 28z"/>
<path d="M1568 1479 c-22 -13 -23 -35 -2 -43 21 -8 44 11 44 35 0 21 -16 24
-42 8z"/>
<path d="M912 1323 c-14 -26 3 -53 34 -53 14 0 27 7 31 16 15 39 -46 73 -65
37z"/>
<path d="M1240 1259 c0 -5 5 -7 10 -4 6 3 10 8 10 11 0 2 -4 4 -10 4 -5 0 -10
-5 -10 -11z"/>
<path d="M1638 1123 c-20 -5 -31 -33 -22 -56 7 -20 59 -44 111 -53 44 -7 85
12 104 48 16 30 -4 45 -75 57 -64 11 -88 12 -118 4z"/>
<path d="M1841 1042 c-55 -31 -62 -37 -45 -45 10 -4 32 -29 48 -55 24 -38 30
-43 33 -27 2 11 11 51 20 88 8 37 14 70 12 72 -2 2 -33 -13 -68 -33z"/>
<path d="M1625 1018 c40 -14 41 -16 21 -31 -16 -12 -16 -14 -2 -26 15 -13 197
-63 204 -57 1 2 -9 21 -23 42 -24 36 -34 41 -113 61 -91 23 -138 29 -87 11z"/>
<path d="M1613 937 c33 -13 35 -27 5 -27 -22 -1 -23 -1 -4 -15 19 -14 19 -15
-9 -15 -56 0 -13 -13 102 -31 65 -11 127 -20 138 -22 16 -1 21 5 23 31 2 24
-1 32 -13 32 -9 0 -62 11 -118 25 -56 14 -113 27 -127 29 -24 4 -23 4 3 -7z"/>
<path d="M1608 833 c-24 -6 -22 -28 4 -45 20 -14 19 -14 -18 -12 -37 3 -38 3
-9 -6 17 -5 65 -15 108 -23 l79 -13 44 35 44 36 -42 13 c-44 13 -179 23 -210
15z"/>
<path d="M1808 750 c-34 -28 -41 -30 -75 -21 -55 14 -133 23 -133 16 0 -3 7
-19 15 -35 16 -32 74 -54 123 -48 25 3 23 5 -22 26 -27 12 -47 24 -44 27 3 3
40 -11 83 -30 43 -20 79 -34 80 -33 7 7 21 128 16 128 -4 0 -23 -14 -43 -30z"/>
<path d="M761 1024 c0 -11 3 -14 6 -6 3 7 2 16 -1 19 -3 4 -6 -2 -5 -13z"/>
<path d="M1426 1904 c-14 -37 -5 -67 37 -110 50 -54 77 -53 77 2 0 38 -7 42
-26 17 -10 -15 -16 -16 -31 -7 -10 7 -17 21 -16 33 2 12 -5 25 -16 31 -13 6
-17 17 -14 30 6 24 -2 27 -11 4z m89 -124 c3 -5 1 -10 -4 -10 -6 0 -11 5 -11
10 0 6 2 10 4 10 3 0 8 -4 11 -10z"/>
<path d="M650 1839 c-22 -8 -25 -15 -25 -54 0 -25 4 -45 8 -45 5 0 7 -10 5
-22 -2 -17 -10 -23 -28 -23 -18 0 -26 6 -28 23 -2 12 -10 22 -18 22 -31 0 -38
-121 -10 -193 16 -41 19 -45 36 -35 11 7 20 21 22 33 2 14 10 19 24 18 16 -2
26 8 40 39 27 60 51 86 99 108 24 11 47 25 51 32 4 6 -14 31 -44 60 -53 50
-78 57 -132 37z"/>
<path d="M1275 1518 c-20 -20 -24 -27 -10 -20 24 12 62 52 49 51 -5 0 -22 -14
-39 -31z"/>
<path d="M655 1510 c-3 -5 -1 -10 4 -10 6 0 11 5 11 10 0 6 -2 10 -4 10 -3 0
-8 -4 -11 -10z"/>
<path d="M620 1500 c0 -5 5 -10 11 -10 5 0 7 5 4 10 -3 6 -8 10 -11 10 -2 0
-4 -4 -4 -10z"/>
<path d="M720 1452 c0 -16 36 -42 67 -48 49 -10 50 14 1 36 -47 21 -68 25 -68
12z"/>
<path d="M1465 1190 c-3 -5 1 -10 10 -10 9 0 13 5 10 10 -3 6 -8 10 -10 10 -2
0 -7 -4 -10 -10z"/>
<path d="M1497 1156 c-74 -41 -96 -62 -42 -41 l40 16 -29 -27 c-25 -22 -31
-36 -34 -84 -3 -47 0 -66 18 -98 30 -54 51 -46 72 26 18 58 48 203 48 228 0
19 -5 17 -73 -20z"/>
<path d="M616 754 c11 -48 34 -80 77 -108 22 -14 42 -24 44 -23 8 8 -34 87
-46 87 -7 0 -29 16 -48 36 l-34 36 7 -28z"/>
<path d="M1190 636 c0 -29 15 -33 44 -11 23 17 21 21 -17 30 -24 6 -27 5 -27
-19z"/>
<path d="M970 630 c-8 -5 -10 -10 -5 -10 6 0 17 5 25 10 8 5 11 10 5 10 -5 0
-17 -5 -25 -10z"/>
<path d="M1050 609 c0 -5 5 -7 10 -4 6 3 10 8 10 11 0 2 -4 4 -10 4 -5 0 -10
-5 -10 -11z"/>
<path d="M1341 564 c-41 -52 -19 -79 29 -37 22 20 29 33 25 46 -10 24 -30 21
-54 -9z"/>
<path d="M1179 573 c-1 -5 -2 -42 -4 -83 -1 -41 -3 -82 -4 -92 -1 -12 -13 -17
-48 -20 -27 -2 -54 -6 -62 -9 -7 -2 -15 1 -17 6 -2 6 21 11 53 13 59 3 80 17
61 39 -17 20 -69 15 -95 -9 -13 -12 -23 -16 -23 -10 0 20 63 53 88 47 30 -7
41 1 35 25 -4 16 -14 20 -44 20 -26 0 -42 -5 -45 -15 -4 -8 -11 -15 -18 -15
-6 0 -22 -28 -35 -62 -23 -60 -23 -63 -6 -94 19 -35 38 -44 102 -44 38 0 44 3
64 40 12 22 24 38 27 36 7 -8 -41 -85 -56 -91 -9 -3 -40 -1 -69 5 -38 8 -58
19 -70 36 -24 38 -28 20 -4 -20 26 -41 38 -46 109 -45 53 2 53 2 82 53 17 28
30 63 30 77 l0 26 58 -20 c31 -10 87 -25 123 -32 63 -12 69 -11 118 12 35 17
51 30 51 44 0 24 -7 24 -54 -5 l-39 -23 -61 19 c-33 11 -91 28 -128 38 -67 18
-68 18 -68 -1 0 -31 -18 -22 -30 16 -9 26 -9 44 0 70 12 35 6 75 -11 75 -5 0
-10 -3 -10 -7z m-81 -240 c12 -3 29 0 37 7 9 7 18 11 21 8 2 -3 -7 -13 -21
-22 -22 -15 -31 -15 -60 -4 -19 6 -35 16 -35 21 0 5 8 6 18 2 9 -4 27 -10 40
-12z"/>
<path d="M1255 548 c-2 -7 -4 -24 -3 -38 1 -14 -2 -34 -6 -45 -7 -19 -7 -19 7
-2 18 22 27 22 27 -2 0 -20 13 -27 128 -63 l74 -23 36 22 c51 29 54 58 7 80
-34 16 -37 16 -46 1 -25 -46 -71 -64 -83 -33 -3 8 -11 15 -19 15 -18 0 -79 64
-70 74 8 8 -15 26 -35 26 -7 0 -15 -6 -17 -12z m295 -102 c0 -2 -13 -9 -30
-15 -16 -5 -30 -6 -30 -1 0 7 10 11 53 19 4 0 7 -1 7 -3z"/>
<path d="M1381 526 c-31 -32 -35 -56 -8 -56 17 0 69 68 62 80 -10 16 -19 12
-54 -24z"/>
<path d="M1092 538 c-21 -21 -14 -27 33 -25 34 2 45 6 43 17 -4 19 -59 25 -76
8z"/>
<path d="M1421 496 c-24 -25 -28 -35 -19 -44 7 -7 18 -12 24 -12 13 0 54 51
54 68 0 24 -30 18 -59 -12z"/>
<path d="M365 2146 c-16 -12 -18 -17 -7 -27 15 -16 36 1 30 25 -3 15 -5 15
-23 2z"/>
<path d="M400 2096 c-7 -9 -9 -23 -6 -33 6 -14 9 -14 23 6 18 27 4 51 -17 27z"/>
<path d="M1058 2573 c7 -3 16 -2 19 1 4 3 -2 6 -13 5 -11 0 -14 -3 -6 -6z"/>
<path d="M965 2558 c-22 -6 -41 -12 -43 -13 -3 -3 29 -67 47 -95 8 -12 10 -11
9 5 -3 39 13 95 30 104 21 13 9 12 -43 -1z"/>
<path d="M1360 2540 c0 -13 7 -20 20 -20 13 0 20 7 20 20 0 13 -7 20 -20 20
-13 0 -20 -7 -20 -20z"/>
<path d="M1032 2510 c0 -14 2 -19 5 -12 2 6 2 18 0 25 -3 6 -5 1 -5 -13z"/>
<path d="M836 2432 c-9 -27 -5 -34 10 -24 7 4 8 16 4 27 -7 19 -7 19 -14 -3z"/>
<path d="M684 2395 c-4 -9 -3 -19 0 -23 9 -8 42 12 39 24 -4 16 -33 16 -39 -1z"/>
<path d="M1595 204 c-5 -1 -23 -5 -38 -8 -24 -6 -27 -11 -26 -39 2 -18 2 -52
1 -77 l-2 -45 -20 25 c-16 22 -17 27 -4 41 32 36 10 79 -41 79 -45 0 -69 -21
-63 -53 3 -15 1 -27 -3 -27 -5 0 -9 7 -9 15 0 8 -10 24 -22 35 -28 27 -80 21
-114 -11 -18 -16 -22 -30 -20 -60 2 -21 9 -45 16 -54 18 -21 72 -19 103 5 32
25 37 25 37 -1 0 -34 44 -21 51 16 l6 30 13 -28 c13 -26 17 -28 54 -22 114 18
141 36 157 102 7 33 5 40 -14 55 -24 18 -46 26 -62 22z m35 -49 c10 -12 10
-15 0 -15 -7 0 -10 -7 -6 -15 6 -17 -31 -61 -42 -50 -4 3 -7 26 -7 51 0 38 3
44 21 44 12 0 27 -7 34 -15z m-152 -28 c2 -12 -3 -17 -17 -17 -12 0 -21 6 -21
13 0 31 32 34 38 4z m-127 -25 c19 -51 -46 -76 -69 -28 -14 27 -13 31 7 47 27
22 49 15 62 -19z"/>
</g>
</svg>
